<?xml version="1.0" encoding="UTF-8" standalone="no" ?>
<!DOCTYPE svg PUBLIC "-//W3C//DTD SVG 1.1//EN" "http://www.w3.org/Graphics/SVG/1.1/DTD/svg11.dtd">
<svg xmlns="http://www.w3.org/2000/svg" xmlns:xlink="http://www.w3.org/1999/xlink" version="1.1" width="1280" height="1024" viewBox="0 0 1280 1024" xml:space="preserve">
<desc>Created with Fabric.js 5.3.0</desc>
<defs>
</defs>
<g transform="matrix(1 0 0 1 640 512)" id="background-logo"  >
<rect style="stroke: none; stroke-width: 0; stroke-dasharray: none; stroke-linecap: butt; stroke-dashoffset: 0; stroke-linejoin: miter; stroke-miterlimit: 4; fill: rgb(255,255,255); fill-rule: nonzero; opacity: 1;"  paint-order="stroke"  x="-640" y="-512" rx="0" ry="0" width="1280" height="1024" />
</g>
<g transform="matrix(3.7314036023816457 0 0 3.314143049928217 640 394.6893758671869)" id="logo-logo"  >
<g style=""  paint-order="stroke"   >
		<g transform="matrix(1.1186913801427607 0 0 1.1186913801427607 34.63076620718374 26.509427957466897)"  >
<linearGradient id="SVGID_21_28203" gradientUnits="userSpaceOnUse" gradientTransform="matrix(1 0 0 1 0 0)"  x1="461.5433044" y1="523.8395996" x2="607.6495361" y2="523.8395996">
<stop offset="0%" style="stop-color:rgb(38,167,233);stop-opacity: 1"/>
<stop offset="72.97046999999999%" style="stop-color:rgb(41,106,222);stop-opacity: 1"/>
</linearGradient>
<path style="stroke: none; stroke-width: 1; stroke-dasharray: none; stroke-linecap: butt; stroke-dashoffset: 0; stroke-linejoin: miter; stroke-miterlimit: 4; fill: url(#SVGID_21_28203); fill-rule: nonzero; opacity: 1;"  paint-order="stroke"  transform=" translate(-534.5964123166112, -523.83963015)" d="M 604.9907227 531.6948853 C 600.4694825 545.7644043 591.232544 555.0999756 589.5355225 556.7500611 C 583.4764405 562.6415406 577.3276367999999 566.2567139 573.5418090999999 568.1473389 C 574.3530273999999 567.0430909 575.0505981999999 565.8233033 575.5551757999999 564.4400025 C 576.9008789 560.7505494 577.3354492 554.8501587 574.1303710999999 550.3609009 C 567.6245117 541.2525025 549.652832 544.3931275 541.9780272999999 545.7339478 C 525.9956053999999 548.52594 515.5620116999999 554.4849244 507.1772460999999 559.2730103 C 498.0678710999999 564.4751587000001 490.87451169999986 568.5845337000001 480.9047851999999 566.1655884 C 477.0722656999999 565.2359009 467.7075195999999 562.1392212000001 463.53515629999987 553.4976196 C 459.61865239999986 545.3862915 462.57617189999985 537.097229 463.2084960999999 535.519104 C 465.18896489999986 530.5786743 469.1284179999999 526.3081665 474.9174804999999 522.8247680999999 C 486.3979492999999 515.9185180999999 499.1293945999999 515.5308227999999 513.8715820999998 515.0825805999999 C 530.3616333999998 514.5811767999999 538.5606079999999 513.3973998999999 542.8344726999999 512.6763305999999 C 551.6193847999999 511.19418339999993 588.9759521999999 504.8915099999999 597.1063842999998 481.9574584999999 C 597.4655151999998 480.9445189999999 597.6995238999998 480.0910338999999 597.8404540999999 479.53192139999993 C 600.0873413 483.3322449 613.1659546 506.2546387 604.9907227 531.6948853 z" stroke-linecap="round" />
</g>
		<g transform="matrix(1.1186913801427607 0 0 1.1186913801427607 30.671977243272977 -28.856850750800618)"  >
<linearGradient id="SVGID_22_28204" gradientUnits="userSpaceOnUse" gradientTransform="matrix(1 0 0 1 0 0)"  x1="464.1489258" y1="474.3476257" x2="597.9663696" y2="474.3476257">
<stop offset="38.09573%" style="stop-color:rgb(41,106,222);stop-opacity: 1"/>
<stop offset="100%" style="stop-color:rgb(38,167,233);stop-opacity: 1"/>
</linearGradient>
<path style="stroke: none; stroke-width: 1; stroke-dasharray: none; stroke-linecap: butt; stroke-dashoffset: 0; stroke-linejoin: miter; stroke-miterlimit: 4; fill: url(#SVGID_22_28204); fill-rule: nonzero; opacity: 1;"  paint-order="stroke"  transform=" translate(-531.0576445794311, -474.34762575)" d="M 587.0722656 451.2636719 C 570.7490234 430.1767578 543.4589844000001 426.8740235 527.1523437000001 424.9008789 C 522.1035156 424.2897339 516.8715820000001 423.9072876 511.53808590000006 423.7601318 L 506.98498530000006 423.692749 L 482.6170043000001 440.0638428 L 464.14892570000006 516.2340088 L 473.55853260000004 525.0025025 L 474.4434203 524.4327393 C 474.81176750000003 524.1947021999999 475.1666869 523.9508667 475.5507811 523.7197266 C 487.2553709 516.6787109999999 500.10791 516.2880859999999 514.9892577 515.8359375 C 524.1035155000001 515.5585937 533.5273436 515.2714844 543.8056639 513.4443359 C 574.392578 508.0039062000001 593.3535155 497.13085930000005 597.198242 482.8276367000001 C 599.6455078 473.7216797 596.2382812 463.1020508 587.0722656 451.2636719 z" stroke-linecap="round" />
</g>
		<g transform="matrix(1.1186913801427607 0 0 1.1186913801427607 -3.026896654187283 -9.828650500789422)"  >
<path style="stroke: none; stroke-width: 1; stroke-dasharray: none; stroke-linecap: butt; stroke-dashoffset: 0; stroke-linejoin: miter; stroke-miterlimit: 4; fill: rgb(33,62,142); fill-rule: nonzero; opacity: 1;"  paint-order="stroke"  transform=" translate(-500.9341677245725, -491.35696414999995)" d="M 482.8834534 520.1784058 C 482.2592163 518.3076172 481.4042664 514.9672852 481.8510742 510.87234499999994 C 481.8510742 510.8722533999999 482.3318176 506.4665832999999 484.65957640000005 502.3616943999999 C 491.21673580000004 490.7985534999999 520.2304687000001 492.63662729999993 533.085083 477.08511359999994 C 535.7418213000001 473.87100229999993 539.2352295000001 468.06683359999994 539.8341064000001 457.71142589999994 C 536.1702880000001 462.15829479999996 530.2589721000002 468.26199349999996 521.5957641000001 473.08511359999994 C 500.5159912000001 484.82095339999995 485.9717407000001 476.26510629999996 473.0851135000001 488.0638427999999 C 464.0754699000001 496.3128967999999 458.7978210000001 511.43356329999995 464.23403930000006 519.3829956 C 466.47537230000006 522.6605225 470.2017822000001 524.2294922 473.55853270000006 525.0025023999999 C 474.8839722000001 524.1011961999999 476.4259033000001 523.1587523999999 478.18566890000005 522.2545776 C 479.8581238 521.3952637 481.442627 520.7169189 482.8834534 520.1784058 z" stroke-linecap="round" />
</g>
		<g transform="matrix(1.1186913801427607 0 0 1.1186913801427607 -37.78411272398074 -27.380681987609762)"  >
<linearGradient id="SVGID_23_28205" gradientUnits="userSpaceOnUse" gradientTransform="matrix(1 0 0 1 0 0)"  x1="399.6303101" y1="475.6671753" x2="540.098999" y2="475.6671753">
<stop offset="0%" style="stop-color:rgb(41,106,222);stop-opacity: 1"/>
<stop offset="100%" style="stop-color:rgb(38,167,233);stop-opacity: 1"/>
</linearGradient>
<path style="stroke: none; stroke-width: 1; stroke-dasharray: none; stroke-linecap: butt; stroke-dashoffset: 0; stroke-linejoin: miter; stroke-miterlimit: 4; fill: url(#SVGID_23_28205); fill-rule: nonzero; opacity: 1;"  paint-order="stroke"  transform=" translate(-469.86463712234513, -475.66717535000004)" d="M 410.1616211 461.4765625 C 430.9262695 434.6552734 470.6132813 423.68798830000003 506.6640625 423.68798830000003 C 506.7716064 423.68798830000003 506.8775024 423.69256590000003 506.9849854 423.69274900000005 C 508.35699470000003 423.94128420000004 534.1541138 428.85906980000004 539.241211 447.42968750000006 C 541.6933594000001 456.38281250000006 538.1503907 464.33593750000006 537.7392579 465.21289060000004 C 532.2148438 476.96386720000004 518.7802735 480.6967773 505.78808599999996 484.30664060000004 C 493.07031259999997 487.8398437 479.91992189999996 491.49365230000006 474.4233399 502.73730470000004 C 471.4768067 508.76531980000004 471.1898804 516.2565918 473.55853279999997 525.0025025 C 472.3311768 525.8423463 471.20935069999996 526.7271729 470.17126469999994 527.6463624 C 465.33135989999994 526.4030763000001 461.18316659999994 524.2467652 457.8461914999999 521.2246095 C 452.26757819999995 516.1728517 450.8017578999999 510.31835950000004 449.3837891999999 504.6572267 C 447.9995118999999 499.1279298 446.5678711999999 493.41113290000004 441.2426758999999 488.79248060000003 C 435.7553711999999 484.03417980000006 426.2905274999999 480.65917980000006 417.5097656999999 483.84960950000004 C 407.8203125999999 487.3711549 404.04632579999986 496.98303240000007 402.9547729999999 500.54101570000006 C 401.2512817999999 497.14648450000004 400.03015139999985 493.33825690000003 399.71142579999986 489.04785160000006 C 398.7573242 476.2050781 406.4599609 466.2573242 410.1616211 461.4765625 z" stroke-linecap="round" />
</g>
		<g transform="matrix(1.1186913801427607 0 0 1.1186913801427607 37.25923233898254 67.27466000729032)"  >
<linearGradient id="SVGID_24_28206" gradientUnits="userSpaceOnUse" gradientTransform="matrix(1 0 0 1 0 0)"  x1="502.1139221" y1="560.2797241" x2="571.7780762" y2="560.2797241">
<stop offset="0%" style="stop-color:rgb(41,106,222);stop-opacity: 1"/>
<stop offset="100%" style="stop-color:rgb(38,162,232);stop-opacity: 1"/>
</linearGradient>
<path style="stroke: none; stroke-width: 1; stroke-dasharray: none; stroke-linecap: butt; stroke-dashoffset: 0; stroke-linejoin: miter; stroke-miterlimit: 4; fill: url(#SVGID_24_28206); fill-rule: nonzero; opacity: 1;"  paint-order="stroke"  transform=" translate(-536.9460023630309, -560.2797357711063)" d="M 553.1334839 575.2411499 C 532.1881714 581.0184937 510.8844299 566.8954468 502.11392209999997 560.0165405 C 502.70083619999997 559.6835327 503.29458619999997 559.3446655 503.89712519999995 558.9999389000001 C 512.2135619999999 554.2509155 522.5641479 548.3397827000001 538.3737182 545.5770873000001 C 545.8639526 544.2694701000001 563.4020385 541.2040404000002 569.5397338 549.8016967000001 C 572.3287963 553.7059936 572.2018432 559.2216186 570.8395385 562.9569701000001 C 567.8366089 571.1884155 557.9225464 573.921814 553.1334839 575.2411499 z" stroke-linecap="round" />
</g>
		<g transform="matrix(1.1186913801427607 0 0 1.1186913801427607 -60.086676114562465 -18.601743793783015)"  >
<linearGradient id="SVGID_25_28207" gradientUnits="userSpaceOnUse" gradientTransform="matrix(1 0 0 1 0 0)"  x1="399.6303101" y1="483.514679" x2="500.2263794" y2="483.514679">
<stop offset="0%" style="stop-color:rgb(38,167,233);stop-opacity: 1"/>
<stop offset="100%" style="stop-color:rgb(41,106,222);stop-opacity: 1"/>
</linearGradient>
<path style="stroke: none; stroke-width: 1; stroke-dasharray: none; stroke-linecap: butt; stroke-dashoffset: 0; stroke-linejoin: miter; stroke-miterlimit: 4; fill: url(#SVGID_25_28207); fill-rule: nonzero; opacity: 1;"  paint-order="stroke"  transform=" translate(-449.9283403147881, -483.5146821330651)" d="M 497.5957642 484.0638428 C 485.93133550000005 474.62463379999997 490.16723640000004 458.67871099999996 475.1287232 447.16876219999995 C 468.52789310000003 442.11676019999993 461.86114510000004 440.71099849999996 459.04254160000005 440.1489258 C 438.4734498 436.0469361 421.7829591 449.63159179999997 418.64117440000007 452.29492189999996 C 415.55749520000006 455.1226807 412.71502690000005 458.17840579999995 410.16162120000007 461.47656249999994 C 406.4599610000001 466.25732419999997 398.75732430000005 476.2050780999999 399.71142590000005 489.04785159999994 C 400.03015150000004 493.3382568999999 401.25128190000004 497.14648439999996 402.95477310000007 500.54101569999995 C 404.0463258000001 496.98303229999993 407.82031270000004 487.37115489999996 417.5097658000001 483.84960949999993 C 426.29052750000005 480.65917979999995 435.7553713000001 484.03417979999995 441.2426760000001 488.7924805999999 C 446.5678713000001 493.4111328999999 447.9995119000001 499.12792979999995 449.3837893000001 504.6572266999999 C 450.8017581000001 510.31835949999993 452.2675784000001 516.1728516999999 457.8461916000001 521.2246094999999 C 461.18316670000013 524.2467652999999 465.3313601000001 526.4030763 470.17126480000013 527.6463623999999 C 471.20935070000013 526.7271728999999 472.3311769000001 525.8423462999999 473.55853290000016 525.0025024999999 C 471.18988060000015 516.2565918999999 471.47680680000013 508.7653198999999 474.42334000000017 502.73730469999987 C 479.1187135000002 493.13256839999985 489.40142840000016 489.06951909999987 500.22637960000014 485.88574219999987 C 499.2544556 485.3052368 498.3739014 484.6935425 497.5957642 484.0638428 z" stroke-linecap="round" />
</g>
		<g transform="matrix(1.1186913801427607 0 0 1.1186913801427607 -75.18908574970584 9.555484450394147)"  >
<linearGradient id="SVGID_26_28208" gradientUnits="userSpaceOnUse" gradientTransform="matrix(1 0 0 1 0 0)"  x1="402.6852722" y1="508.6844788" x2="470.1712646" y2="508.6844788">
<stop offset="0%" style="stop-color:rgb(41,106,222);stop-opacity: 1"/>
<stop offset="100%" style="stop-color:rgb(38,167,233);stop-opacity: 1"/>
</linearGradient>
<path style="stroke: none; stroke-width: 1; stroke-dasharray: none; stroke-linecap: butt; stroke-dashoffset: 0; stroke-linejoin: miter; stroke-miterlimit: 4; fill: url(#SVGID_26_28208); fill-rule: nonzero; opacity: 1;"  paint-order="stroke"  transform=" translate(-436.42827237539257, -508.6844731442231)" d="M 416.2324219 516.6328125 C 412.7848511 513.4295044 409.78707890000004 510.2533264 409.7870178 510.2532654 C 406.6538696 506.6348572 404.4529724 503.20236209999996 402.9547729 500.5410156 C 402.6159667 498.5980224 402.2621765 494.8108215 404.1489257 491.04254149999997 C 406.9488525 485.4504394 412.793518 483.67376709999996 416.8297729 482.44680789999995 C 419.2118835 481.72268679999996 431.1122436 478.10519409999995 441 484.74468999999993 C 445.6933899 487.89624029999993 447.9317017 492.0147094999999 450.872345 497.42553719999995 C 455.5282593 505.9924622 454.4782715 509.49639899999994 458.6170349 516.1489259 C 460.6937866 519.4870607 464.14514160000004 523.7274781 470.17126460000003 527.6463624 C 468.91131590000003 528.7239381 467.38006590000003 530.2507325 465.9440917 532.3119508000001 C 464.8754882 533.8458253000001 464.1148681 535.3093263000001 463.5708007 536.5556642000001 C 450.4326172 535.4003906 431.6835938 530.9892578 416.2324219 516.6328125 z" stroke-linecap="round" />
</g>
		<g transform="matrix(1.1186913801427607 0 0 1.1186913801427607 69.79002505933062 -3.3402990087111277)"  >
<path style="stroke: none; stroke-width: 1; stroke-dasharray: none; stroke-linecap: butt; stroke-dashoffset: 0; stroke-linejoin: miter; stroke-miterlimit: 4; fill: rgb(33,62,142); fill-rule: nonzero; opacity: 1;"  paint-order="stroke"  transform=" translate(-566.0253296000001, -497.1569118453601)" d="M 528.6276245 514.3311768 C 538.6561279 515.2070312999999 553.4193115 515.2271119 569.6808472 510.44680789999995 C 577.409668 508.17483519999996 588.8803711 504.6702271 599.8085327 494.9574585 C 601.3713379 493.56845089999996 602.5988769 492.34063719999995 603.4230347 491.48443599999996 C 602.760315 489.64627069999995 601.9677735 487.6804504 601.0164795000001 485.62390129999994 C 599.9790039000001 483.3811339999999 598.9003906 481.3497618999999 597.8404541000001 479.53192129999996 C 597.4212646000001 481.05837999999994 596.6488037000001 483.44421379999994 595.2219849 486.1218871 C 589.4364624000001 496.9794005 578.7020874000001 501.73300159999997 570.0113526 505.4430236 C 562.3581544 508.7101134 556.1519776 510.0311889 549.7336426 511.3974609 C 541.2021484 513.213562 533.9135742 513.9807129 528.6276245 514.3311768 z" stroke-linecap="round" />
</g>
		<g transform="matrix(1.1186913801427607 0 0 1.1186913801427607 75.52942602281303 -31.26681005894639)"  >
<linearGradient id="SVGID_27_28209" gradientUnits="userSpaceOnUse" gradientTransform="matrix(1 0 0 1 0 0)"  x1="544.3452148" y1="472.1933594" x2="597.9663696" y2="472.1933594">
<stop offset="27.02953%" style="stop-color:rgb(41,106,222);stop-opacity: 1"/>
<stop offset="100%" style="stop-color:rgb(38,167,233);stop-opacity: 1"/>
</linearGradient>
<path style="stroke: none; stroke-width: 1; stroke-dasharray: none; stroke-linecap: butt; stroke-dashoffset: 0; stroke-linejoin: miter; stroke-miterlimit: 4; fill: url(#SVGID_27_28209); fill-rule: nonzero; opacity: 1;"  paint-order="stroke"  transform=" translate(-571.1557892293126, -472.1933593)" d="M 597.1982422 482.8276367 C 593.3764037999999 497.04571530000004 574.6124877999999 507.8719482 544.3452149 513.3441772 C 560.3159790999999 506.0778198 571.6782227 494.4383544 575.1344604999999 481.0244751 C 579.250061 465.0515747 573.000061 450.4468994 573 450.4467773 C 571.5021973 447.0090942 569.0209351 442.4039917 564.9208374 437.8002929 C 562.3383789 434.9005737 559.7290649 432.6924438 557.4672852 431.0425414 C 568.2478028 434.762268 579.0007935 440.8367309 587.0722657 451.2636718 C 596.2382812 463.1020508 599.6455078 473.7216797 597.1982422 482.8276367 z" stroke-linecap="round" />
</g>
		<g transform="matrix(1.1186913801427607 0 0 1.1186913801427607 51.04305584587894 -8.38427388174884)"  >
<path style="stroke: none; stroke-width: 1; stroke-dasharray: none; stroke-linecap: butt; stroke-dashoffset: 0; stroke-linejoin: miter; stroke-miterlimit: 4; fill: rgb(23,209,252); fill-rule: nonzero; opacity: 1;"  paint-order="stroke"  transform=" translate(-549.267384069876, -492.0049586125525)" d="M 596.5055542 468.1233521 C 598.1817017 473.37615969999996 598.4177246 478.2900391 597.1982422 482.8276368 C 593.3535156 497.1308595 574.3925781 508.0039063 543.8056641 513.444336 C 536.338501 514.772522 525.3735962 515.6195679 514.9892579 515.8359376 C 509.0082093 515.9605713999999 504.03222669999997 515.8331909999999 500.5690919 515.6903077 C 505.2730104 515.2697754999999 545.9833985 511.45571909999995 571.1276857 500.65957649999996 C 575.399048 499.28604129999997 583.6857912 495.92587289999994 590.4227296 487.86602789999995 C 593.2084352 484.53326419999996 595.0488893 481.21081549999997 596.2766114 478.4467774 C 596.8757935 476.1872559 597.3839111 472.737854 596.5055542 468.1233521 z" stroke-linecap="round" />
</g>
		<g transform="matrix(1.1186913801427607 0 0 1.1186913801427607 34.68760080075782 63.25943693811814)"  >
<path style="stroke: none; stroke-width: 1; stroke-dasharray: none; stroke-linecap: butt; stroke-dashoffset: 0; stroke-linejoin: miter; stroke-miterlimit: 4; fill: rgb(33,62,142); fill-rule: nonzero; opacity: 1;"  paint-order="stroke"  transform=" translate(-534.64721685, -556.6905214976757)" d="M 547.3829956 547.2553101 C 555.225647 545.5656739 562.1140137 546.3325806 566.914917 547.3829956 C 567.0012816999999 547.3931273999999 567.0930785999999 547.4093627999999 567.180481 547.4205321999999 C 559.7347413 541.8512572999999 545.0573731 544.4102783 538.3737183 545.5770873999999 C 522.5641479999999 548.3397826999999 512.2135621 554.2509154999999 503.89715579999995 558.9999389999998 C 503.29461669999995 559.3446655999998 502.70086669999995 559.6835327999999 502.11395269999997 560.0165405999998 C 505.41516119999994 562.6057739999998 510.49291999999997 566.2208862999997 516.657959 569.4152221999998 C 521.5595093 562.0960693 531.4594727 550.6859131 547.3829956 547.2553101 z" stroke-linecap="round" />
</g>
		<g transform="matrix(1.1186913801427607 0 0 1.1186913801427607 2.226059385062399 -18.22849742996476)"  >
<path style="stroke: none; stroke-width: 1; stroke-dasharray: none; stroke-linecap: butt; stroke-dashoffset: 0; stroke-linejoin: miter; stroke-miterlimit: 4; fill: rgb(23,209,252); fill-rule: nonzero; opacity: 1;"  paint-order="stroke"  transform=" translate(-505.629793464157, -483.84832764999993)" d="M 537.7392578 465.2128906 C 532.2148437000001 476.9638672 518.7802734 480.6967773 505.7880859 484.3066406 C 493.0703125 487.83984369999996 479.9199218 491.4936523 474.4233398 502.7373047 C 471.94543450000003 507.8066406 471.3562011 513.9145508 472.6376953 520.9295043999999 C 470.3881836 512.3596802 470.70581050000004 505.0056151999999 473.6061401 499.07214359999995 C 479.1027221 487.82849129999994 492.2531128 484.17468269999995 504.9708862 480.64147949999995 C 517.9630737 477.0316162 531.397644 473.29870609999995 536.9220581 461.54772949999995 C 537.286438 460.77044679999995 540.102356 454.43151859999995 539.0324096999999 446.76715089999993 C 539.1003417999999 446.98913579999993 539.1793212999999 447.20367429999993 539.2412109999999 447.42968749999994 C 541.6933594 456.3828125 538.1503906 464.3359375 537.7392578 465.2128906 z" stroke-linecap="round" />
</g>
		<g transform="matrix(1.1186913801427607 0 0 1.1186913801427607 33.49487186583701 47.33230719909312)"  >
<linearGradient id="SVGID_28_28210" gradientUnits="userSpaceOnUse" gradientTransform="matrix(1 0 0 1 0 0)"  x1="461.5433044" y1="542.4532471" x2="605.6187744" y2="542.4532471">
<stop offset="27.02953%" style="stop-color:rgb(41,106,222);stop-opacity: 1"/>
<stop offset="100%" style="stop-color:rgb(38,167,233);stop-opacity: 1"/>
</linearGradient>
<path style="stroke: none; stroke-width: 1; stroke-dasharray: none; stroke-linecap: butt; stroke-dashoffset: 0; stroke-linejoin: miter; stroke-miterlimit: 4; fill: url(#SVGID_28_28210); fill-rule: nonzero; opacity: 1;"  paint-order="stroke"  transform=" translate(-533.581034562291, -542.4532349486433)" d="M 597.6808472 522.6170044 C 568.1932984 504.06768800000003 511.6568604 535.1118774 503.7234497 539.4680786 C 500.272522 541.3629761 487.9383545 548.4075317 477.70745850000003 544.1208496 C 476.44195560000003 543.5906372000001 471.95410160000006 541.7102661 470.2766113 537.1702270000001 C 467.8406982 530.5776367000001 473.406311 524.0498046 473.9262695 523.4635009000001 C 468.6885986 526.8274535 465.07122799999996 530.8723754000001 463.2084961 535.5191039000001 C 462.57617189999996 537.0972289000001 459.6186523 545.3862914000001 463.5351563 553.4976195000002 C 467.70751959999996 562.1392211000001 477.0722657 565.2359007000001 480.9047852 566.1655883000002 C 490.8745118 568.5845336000002 498.0678711 564.4751586000002 507.1772461 559.2730102000002 C 515.5620117 554.4849243000001 525.9956055 548.5259399000001 541.9780273 545.7339477000002 C 549.652832 544.3931274000001 567.6245117 541.2525024000001 574.1303711 550.3609008000002 C 577.3354492000001 554.8501586000002 576.9008789000001 560.7505492000003 575.5551758 564.4400024000001 C 575.0505982000001 565.8233032000002 574.3530274 567.0430908000002 573.5418091 568.1473388000002 C 577.3276367 566.2567138000002 583.4764404 562.6415405000001 589.5355225000001 556.7500610000002 C 591.2325440000001 555.0999756000002 600.4694825 545.7644043000001 604.9907227000001 531.6948852000002 C 605.2182618 530.9868164000002 605.4234620000001 530.2814331000002 605.6187745000001 529.5776367000002 C 603.3687744 526.9199829 600.7462769 524.5453491 597.6808472 522.6170044 z" stroke-linecap="round" />
</g>
</g>
</g>
<g transform="matrix(1.9211538461538462 0 0 1.9211538461538462 621.3075500925681 801.3062019807146)" id="text-logo"  >
<g style=""  paint-order="stroke"   >
		<g transform="matrix(1 0 0 1 -5.684342e-14 0)" id="text-logo-path-0"  >
<linearGradient id="SVGID_28211" gradientUnits="userSpaceOnUse" gradientTransform="matrix(1 0 0 1 2.5999999999999943 -77.79)"  x1="-2.6520051574706827" y1="-13.638559999999927" x2="-2.6520051574706827" y2="104.36144000000007">
<stop offset="0%" style="stop-color:rgb(23,234,217);stop-opacity: 1"/>
<stop offset="100%" style="stop-color:rgb(96,120,234);stop-opacity: 1"/>
</linearGradient>
<path style="stroke: none; stroke-width: 0; stroke-dasharray: none; stroke-linecap: butt; stroke-dashoffset: 0; stroke-linejoin: miter; stroke-miterlimit: 4; fill: url(#SVGID_28211); fill-rule: nonzero; opacity: 1;"  paint-order="stroke"  transform=" translate(-248.86999999999998, 28.285000000000004)" d="M 2.6 0 L 20.8 0 L 21.94 -8.01 C 26.52 -2.6 34.01 1.56 43.68 1.56 C 48.15 1.56 52.52 0.83 56.78 -0.73 C 65.1 -3.64 71.24 -10.4 71.24 -20.49 C 71.24 -24.96 69.99 -28.81 67.39 -31.82 C 64.79 -34.84 61.67 -37.13 58.03 -38.9 C 54.39 -40.56 49.92 -42.33 44.41 -44.1 C 34.42 -47.42 30.06 -49.3 30.06 -53.14 C 30.06 -56.47 33.8 -58.66 37.23 -58.66 C 44.82 -58.66 50.54 -54.08 50.54 -46.59 L 69.37 -46.59 L 69.37 -72.7 L 51.48 -72.7 L 50.44 -63.96 C 46.59 -71.34 38.27 -74.57 28.7 -74.57 C 25.06 -74.57 21.32 -73.74 17.47 -72.07 C 9.78 -68.74 3.95 -61.78 3.95 -52.21 C 3.95 -46.9 5.41 -42.64 8.22 -39.42 C 11.02 -36.09 14.35 -33.59 18.2 -32.03 C 22.05 -30.37 26.73 -28.7 32.34 -27.14 C 40.77 -24.65 43.89 -23.61 43.89 -21.01 C 43.89 -17.16 39.73 -15.81 35.05 -15.81 C 31.82 -15.91 28.81 -16.74 26.1 -18.3 C 23.3 -19.76 21.94 -22.36 21.94 -26.21 L 2.6 -26.21 Z M 106.29 0 L 106.29 -13.62 L 100.05 -13.62 L 100.05 -32.14 C 100.05 -36.4 101.4 -38.38 104.73 -38.38 C 106.08 -38.38 107.12 -37.96 107.74 -37.23 C 108.89 -35.67 109.1 -33.07 109.1 -26.52 L 109.1 0 L 136.03 0 L 136.03 -13.94 L 129.79 -13.94 L 129.79 -30.78 C 129.79 -35.78 131.14 -38.38 135.3 -38.38 C 138.53 -38.38 139.36 -35.15 139.36 -30.06 L 139.26 -25.48 L 139.26 0 L 165.67 0 L 165.67 -14.04 L 160.58 -14.04 L 160.58 -28.39 C 160.58 -35.98 159.22 -42.12 156.62 -46.59 C 153.92 -51.06 148.72 -53.35 141.13 -53.35 C 135.41 -53.35 130.31 -50.86 125.84 -45.86 C 124.49 -47.94 122.72 -49.71 120.54 -51.17 C 118.35 -52.62 114.92 -53.35 110.34 -53.35 C 105.87 -53.35 101.61 -50.86 97.34 -45.76 L 95.06 -51.9 L 75.4 -51.9 L 75.4 -38.17 L 79.77 -38.17 L 79.77 -13.62 L 75.4 -13.62 L 75.4 0 Z M 169.94 -47.63 L 174.3 -35.57 C 179.4 -38.38 184.29 -40.35 189.8 -40.35 C 196.04 -40.35 199.68 -38.79 199.68 -34.53 L 199.68 -30.89 C 198.54 -32.24 194.69 -34.53 189.38 -34.53 C 177.53 -34.53 167.75 -26.94 167.75 -15.39 C 167.75 -3.85 177.94 1.98 188.24 1.98 C 192.92 1.98 198.85 0 202.28 -4.68 L 204.78 0 L 227.03 0 L 227.03 -13.31 L 220.79 -13.31 L 220.79 -33.59 C 220.79 -38.79 219.44 -42.95 216.63 -46.18 C 211.02 -52.52 202.07 -55.02 192.61 -55.02 C 185.64 -55.02 178.15 -52.52 169.94 -47.63 Z M 187.51 -16.43 C 187.51 -19.76 189.49 -21.94 193.54 -21.94 C 196.46 -21.94 198.54 -20.9 199.68 -18.93 L 199.68 -14.98 C 198.54 -13.21 195.94 -11.54 193.02 -11.54 C 189.8 -11.54 187.51 -13.52 187.51 -16.43 Z M 259.58 0 L 259.58 -13.62 L 254.38 -13.62 L 254.38 -24.34 C 254.38 -33.07 259.06 -35.88 269.05 -35.88 L 269.05 -53.87 C 258.54 -53.87 255.94 -51.06 252.93 -45.34 L 249.81 -52 L 230.26 -52 L 230.26 -38.48 L 234.73 -38.48 L 234.73 -13.62 L 230.15 -13.62 L 230.15 0 Z M 271.13 -52 L 271.13 -38.48 L 276.74 -38.48 L 276.74 -19.97 C 276.85 -14.56 277.26 -10.4 277.89 -7.59 C 279.14 -1.77 283.3 1.87 293.18 1.87 C 294.74 1.87 296.82 1.66 299.62 1.35 C 302.33 0.94 304.41 0.42 305.76 -0.1 L 305.76 -13.42 C 303.68 -12.58 300.46 -11.65 299.21 -11.65 C 296.71 -11.65 295.78 -13.52 295.78 -16.54 L 295.88 -19.97 L 295.88 -38.48 L 305.76 -38.48 L 305.76 -52 L 295.88 -52 L 295.88 -67.7 L 276.74 -61.57 L 276.74 -52 Z M 333.84 -72.7 L 333.84 -58.97 L 340.39 -58.97 L 340.39 -13.83 L 333.84 -13.83 L 333.84 0 L 396.55 0 L 396.55 -23.5 L 378.56 -23.5 L 378.56 -13.83 L 361.92 -13.83 L 361.92 -30.78 L 381.68 -30.78 L 381.68 -44.62 L 361.92 -44.62 L 361.92 -58.97 L 378.56 -58.97 L 378.56 -49.71 L 396.55 -49.71 L 396.55 -72.7 Z M 400.71 7.59 L 400.71 21.22 L 431.81 21.22 L 431.81 7.59 L 426.19 7.59 L 426.19 -2.91 C 428.27 -1.25 432.33 1.14 439.71 1.14 C 453.23 1.14 463.42 -9.36 463.42 -25.58 C 463.42 -40.77 454.69 -52.83 438.88 -52.83 C 434.51 -52.83 430.35 -51.38 426.3 -48.36 L 424.53 -52 L 400.71 -52 L 400.71 -38.17 L 405.08 -38.17 L 405.08 7.59 Z M 426.19 -24.86 L 426.19 -26.21 C 426.19 -32.55 429.21 -38.17 433.58 -38.17 C 435.76 -38.17 437.63 -36.92 438.98 -34.32 C 440.34 -31.72 441.06 -28.7 441.06 -25.38 C 441.06 -17.47 438.15 -12.38 433.68 -12.38 C 431.7 -12.38 429.94 -13.62 428.48 -16.02 C 426.92 -18.41 426.19 -21.42 426.19 -24.86 Z M 468.94 -67.18 C 468.94 -62.19 473.82 -56.68 480.17 -56.68 C 487.24 -56.68 491.61 -61.26 491.61 -67.18 C 491.61 -72.18 487.14 -77.79 480.17 -77.79 C 473.2 -77.79 468.94 -72.18 468.94 -67.18 Z M 466.02 0 L 495.14 0 L 495.14 -13.62 L 490.15 -13.62 L 490.15 -52 L 466.02 -52 L 466.02 -38.48 L 470.39 -38.48 L 470.39 -13.62 L 466.02 -13.62 Z" stroke-linecap="round" />
</g>
</g>
</g>
</svg>